<?xml version="1.0" standalone="no"?>
<!DOCTYPE svg PUBLIC "-//W3C//DTD SVG 20010904//EN"
 "http://www.w3.org/TR/2001/REC-SVG-20010904/DTD/svg10.dtd">
<svg version="1.0" xmlns="http://www.w3.org/2000/svg"
 width="270.000000pt" height="270.000000pt" viewBox="0 0 270.000000 270.000000"
 preserveAspectRatio="xMidYMid meet">
<metadata>
Created by potrace 1.14, written by Peter Selinger 2001-2017
</metadata>
<g transform="translate(0.000000,270.000000) scale(0.100000,-0.100000)"
fill="#000000" stroke="none">
<path d="M692 2175 c-259 -59 -485 -242 -593 -481 -57 -126 -74 -206 -73 -354
1 -117 5 -147 28 -225 90 -296 317 -518 611 -596 82 -22 304 -33 321 -16 4 4
-13 29 -37 55 -171 179 -281 435 -304 710 l-7 82 -137 0 -136 0 222 222 223
223 215 -215 c118 -118 215 -218 215 -222 0 -5 -61 -8 -136 -8 l-135 0 7 -72
c35 -371 281 -663 639 -759 112 -30 307 -30 420 -1 293 78 521 301 611 597 23
78 27 108 28 225 0 112 -3 149 -22 215 -91 320 -337 554 -652 620 -70 15 -290
21 -290 9 0 -4 19 -28 43 -53 65 -70 130 -166 180 -266 73 -147 103 -259 122
-468 l7 -68 126 1 c70 1 129 1 133 1 3 -1 -93 -99 -213 -218 l-218 -218 -215
215 c-118 118 -215 217 -215 220 0 3 60 5 132 5 l133 0 -2 65 c-11 288 -194
561 -468 698 -126 63 -217 85 -365 88 -91 2 -155 -2 -198 -11z"/>
</g>
</svg>
