<svg width="20" height="21" viewBox="0 0 20 21" fill="none" xmlns="http://www.w3.org/2000/svg">
<path d="M12.9499 9.79896L8.23328 5.09063C8.15581 5.01252 8.06364 4.95052 7.96209 4.90822C7.86054 4.86591 7.75162 4.84413 7.64161 4.84413C7.5316 4.84413 7.42268 4.86591 7.32113 4.90822C7.21958 4.95052 7.12741 5.01252 7.04994 5.09063C6.89474 5.24676 6.80762 5.45797 6.80762 5.67813C6.80762 5.89828 6.89474 6.10949 7.04994 6.26563L11.1749 10.4323L7.04994 14.5573C6.89474 14.7134 6.80762 14.9246 6.80762 15.1448C6.80762 15.3649 6.89474 15.5762 7.04994 15.7323C7.12712 15.811 7.21916 15.8737 7.32072 15.9166C7.42229 15.9595 7.53135 15.9818 7.64161 15.9823C7.75187 15.9818 7.86094 15.9595 7.9625 15.9166C8.06406 15.8737 8.1561 15.811 8.23328 15.7323L12.9499 11.024C13.0345 10.9459 13.102 10.8512 13.1482 10.7458C13.1944 10.6404 13.2182 10.5265 13.2182 10.4115C13.2182 10.2964 13.1944 10.1825 13.1482 10.0771C13.102 9.9717 13.0345 9.877 12.9499 9.79896V9.79896Z" fill="#1fab31"/>
</svg>
