<svg fill="none" height="512" viewBox="0 0 24 24" width="512" xmlns="http://www.w3.org/2000/svg"><g clip-rule="evenodd" fill="rgb(0,0,0)" fill-rule="evenodd"><path d="m2 6c0-2.20914 1.79086-4 4-4s4 1.79086 4 4-1.79086 4-4 4-4-1.79086-4-4zm4-2c-1.10457 0-2 .89543-2 2s.89543 2 2 2 2-.89543 2-2-.89543-2-2-2z" fill="#1fab31"/><path d="m2 18c0-2.2091 1.79086-4 4-4s4 1.7909 4 4-1.79086 4-4 4-4-1.7909-4-4zm4-2c-1.10457 0-2 .8954-2 2s.89543 2 2 2 2-.8954 2-2-.89543-2-2-2z" fill="#1fab31"/><path d="m14 6c0-2.20914 1.7909-4 4-4s4 1.79086 4 4-1.7909 4-4 4-4-1.79086-4-4zm4-2c-1.1046 0-2 .89543-2 2s.8954 2 2 2 2-.89543 2-2-.8954-2-2-2z" fill="#1fab31"/><path d="m6 8c.55228 0 1 .44772 1 1v6c0 .5523-.44772 1-1 1s-1-.4477-1-1v-6c0-.55228.44772-1 1-1z" fill="#1fab31"/><path d="m18 8c.5523 0 1 .44772 1 1v3.3242c0 2.3058-.2308 4.1543-1.4579 5.3167-.6186.5859-1.4062.9178-2.3101 1.1081-.8954.1885-1.9689.251-3.224.251h-3.008c-.55228 0-1-.4477-1-1s.44772-1 1-1h3.008c1.2121 0 2.1213-.0627 2.812-.2081.6822-.1436 1.0841-.3543 1.3467-.603.5353-.5071.8333-1.4965.8333-3.8647v-3.3242c0-.55228.4477-1 1-1z" fill="#1fab31"/></g></svg>