<svg width="24" height="24" viewBox="0 0 24 24" fill="none" xmlns="http://www.w3.org/2000/svg">
<path d="M20.4701 1.99608H3.53006C3.33964 1.99344 3.15056 2.02833 2.97362 2.09876C2.79669 2.1692 2.63536 2.2738 2.49886 2.40659C2.36235 2.53938 2.25334 2.69777 2.17805 2.87269C2.10276 3.04762 2.06267 3.23566 2.06006 3.42608V20.5661C2.06267 20.7565 2.10276 20.9445 2.17805 21.1195C2.25334 21.2944 2.36235 21.4528 2.49886 21.5856C2.63536 21.7184 2.79669 21.823 2.97362 21.8934C3.15056 21.9638 3.33964 21.9987 3.53006 21.9961H20.4701C20.6605 21.9987 20.8496 21.9638 21.0265 21.8934C21.2034 21.823 21.3648 21.7184 21.5013 21.5856C21.6378 21.4528 21.7468 21.2944 21.8221 21.1195C21.8974 20.9445 21.9375 20.7565 21.9401 20.5661V3.42608C21.9375 3.23566 21.8974 3.04762 21.8221 2.87269C21.7468 2.69777 21.6378 2.53938 21.5013 2.40659C21.3648 2.2738 21.2034 2.1692 21.0265 2.09876C20.8496 2.02833 20.6605 1.99344 20.4701 1.99608ZM8.09006 18.7361H5.09006V9.73608H8.09006V18.7361ZM6.59006 8.47608C6.17632 8.47608 5.77953 8.31172 5.48697 8.01917C5.19442 7.72661 5.03006 7.32982 5.03006 6.91608C5.03006 6.50234 5.19442 6.10555 5.48697 5.81299C5.77953 5.52044 6.17632 5.35608 6.59006 5.35608C6.80975 5.33117 7.03224 5.35294 7.24293 5.41996C7.45363 5.48699 7.6478 5.59777 7.81272 5.74504C7.97763 5.89231 8.10958 6.07276 8.19993 6.27456C8.29028 6.47637 8.33698 6.69498 8.33698 6.91608C8.33698 7.13718 8.29028 7.35579 8.19993 7.5576C8.10958 7.7594 7.97763 7.93985 7.81272 8.08712C7.6478 8.23439 7.45363 8.34517 7.24293 8.4122C7.03224 8.47923 6.80975 8.501 6.59006 8.47608ZM18.9101 18.7361H15.9101V13.9061C15.9101 12.6961 15.4801 11.9061 14.3901 11.9061C14.0527 11.9086 13.7242 12.0144 13.4489 12.2093C13.1735 12.4041 12.9645 12.6788 12.8501 12.9961C12.7718 13.2311 12.7379 13.4787 12.7501 13.7261V18.7261H9.75006C9.75006 18.7261 9.75006 10.5461 9.75006 9.72608H12.7501V10.9961C13.0226 10.5232 13.419 10.1336 13.8965 9.86928C14.374 9.60497 14.9146 9.47593 15.4601 9.49608C17.4601 9.49608 18.9101 10.7861 18.9101 13.5561V18.7361Z" fill="#1fab31"/>
</svg>
