<svg width="49" height="48" viewBox="0 0 49 48" fill="none" xmlns="http://www.w3.org/2000/svg">
<path d="M43.2667 20.16C42.7048 19.4853 42.0015 18.9422 41.2067 18.569C40.4119 18.1957 39.5448 18.0015 38.6667 18H29.5467L30.6667 15.14C31.1326 13.8878 31.2878 12.5412 31.1189 11.2159C30.95 9.8905 30.4621 8.62588 29.6971 7.53049C28.9321 6.43509 27.9128 5.54162 26.7266 4.92671C25.5405 4.31181 24.2228 3.99382 22.8867 4.00003C22.502 4.00083 22.1257 4.11258 21.8029 4.32187C21.4801 4.53117 21.2245 4.82913 21.0667 5.18003L15.3667 18H10.6667C9.07545 18 7.54933 18.6322 6.42411 19.7574C5.29889 20.8826 4.66675 22.4087 4.66675 24V38C4.66675 39.5913 5.29889 41.1174 6.42411 42.2427C7.54933 43.3679 9.07545 44 10.6667 44H36.1267C37.5304 43.9996 38.8894 43.507 39.9674 42.6081C41.0454 41.7091 41.7741 40.4607 42.0267 39.08L44.5667 25.08C44.7239 24.2148 44.6888 23.3256 44.4642 22.4754C44.2395 21.6252 43.8307 20.8347 43.2667 20.16ZM14.6667 40H10.6667C10.1363 40 9.62761 39.7893 9.25253 39.4142C8.87746 39.0392 8.66675 38.5305 8.66675 38V24C8.66675 23.4696 8.87746 22.9609 9.25253 22.5858C9.62761 22.2107 10.1363 22 10.6667 22H14.6667V40ZM40.6667 24.36L38.1267 38.36C38.0416 38.8259 37.7938 39.2465 37.4275 39.5468C37.0613 39.8472 36.6003 40.0078 36.1267 40H18.6667V20.42L24.1067 8.18003C24.6667 8.34328 25.1868 8.62084 25.6341 8.99519C26.0814 9.36955 26.4462 9.83256 26.7055 10.355C26.9649 10.8775 27.1131 11.448 27.1409 12.0306C27.1686 12.6132 27.0753 13.1953 26.8667 13.74L25.8067 16.6C25.5809 17.2045 25.5046 17.8547 25.5845 18.4951C25.6644 19.1355 25.898 19.747 26.2654 20.2775C26.6328 20.808 27.1232 21.2418 27.6946 21.5417C28.2659 21.8417 28.9014 21.9989 29.5467 22H38.6667C38.9606 21.9996 39.2509 22.0638 39.5171 22.1883C39.7832 22.3127 40.0187 22.4943 40.2067 22.72C40.3994 22.9427 40.5405 23.2051 40.6201 23.4886C40.6996 23.7721 40.7155 24.0697 40.6667 24.36Z" fill="#1A1A1A"/>
</svg>
