<svg width="12" height="13" viewBox="0 0 12 13" fill="none" xmlns="http://www.w3.org/2000/svg">
<path fill-rule="evenodd" clip-rule="evenodd" d="M4.24206 4.24249C3.37928 3.77404 2.42143 3.39603 1.5769 3.39603C-0.5357 3.39603 -0.515545 8.62154 1.5769 8.62154C2.41558 8.62154 3.366 8.24876 4.22409 7.78482C3.75964 8.64345 3.38627 9.59471 3.38627 10.434C3.38627 12.5265 8.61178 12.5467 8.61178 10.434C8.61178 9.59396 8.23774 8.64175 7.77272 7.78253C8.63192 8.24753 9.58409 8.62154 10.4241 8.62154C12.5166 8.62154 12.5367 3.39603 10.4241 3.39603C9.59197 3.39603 8.64977 3.76306 7.79692 4.22198C8.25763 3.36726 8.6267 2.42213 8.6267 1.58765C8.6267 -0.504803 3.40119 -0.524958 3.40119 1.58765C3.40119 2.42881 3.77619 3.3824 4.24206 4.24249Z" fill="#BABABA"/>
</svg>
