<!DOCTYPE svg PUBLIC "-//W3C//DTD SVG 1.1//EN" "http://www.w3.org/Graphics/SVG/1.1/DTD/svg11.dtd">
<!-- Uploaded to: SVG Repo, www.svgrepo.com, Transformed by: SVG Repo Mixer Tools -->
<svg fill="#13671d" height="64px" width="64px" version="1.1" id="Capa_1" xmlns="http://www.w3.org/2000/svg" xmlns:xlink="http://www.w3.org/1999/xlink" viewBox="0 0 297 297" xml:space="preserve">
<g id="SVGRepo_bgCarrier" stroke-width="0"/>
<g id="SVGRepo_tracerCarrier" stroke-linecap="round" stroke-linejoin="round"/>
<g id="SVGRepo_iconCarrier"> <g> <path d="M253.782,249.761c5.542,0,10.051-4.509,10.051-10.051s-4.509-10.051-10.051-10.051c-5.542,0-10.051,4.509-10.051,10.051 S248.24,249.761,253.782,249.761z"/> <path d="M225.808,249.761c5.542,0,10.051-4.509,10.051-10.051s-4.509-10.051-10.051-10.051c-5.542,0-10.051,4.509-10.051,10.051 S220.267,249.761,225.808,249.761z"/> <path d="M166.585,99.611c-3.431,3.438-3.429,9.03,0.005,12.465c1.72,1.719,3.977,2.578,6.236,2.578c2.258,0,4.516-0.86,6.236-2.578 c3.434-3.435,3.436-9.027,0-12.471C175.621,96.168,170.028,96.166,166.585,99.611z"/> <path d="M164.438,144.465c0,4.861,3.956,8.817,8.818,8.817c4.861,0,8.817-3.956,8.817-8.817c0-4.862-3.956-8.818-8.817-8.818 C168.393,135.647,164.438,139.603,164.438,144.465z"/> <path d="M39.499,117.945c9.311,0,16.885-7.574,16.885-16.885S48.81,84.175,39.499,84.175S22.614,91.75,22.614,101.06 S30.189,117.945,39.499,117.945z M39.499,94.226c3.768,0,6.834,3.066,6.834,6.834c0,3.768-3.066,6.834-6.834,6.834 c-3.768,0-6.834-3.066-6.834-6.834C32.665,97.292,35.731,94.226,39.499,94.226z"/> <path d="M56.384,136.64c0-9.311-7.574-16.885-16.885-16.885s-16.885,7.574-16.885,16.885c0,9.311,7.574,16.885,16.885,16.885 S56.384,145.951,56.384,136.64z M32.665,136.64c0-3.768,3.066-6.834,6.834-6.834c3.768,0,6.834,3.066,6.834,6.834 c0,3.768-3.066,6.834-6.834,6.834C35.731,143.475,32.665,140.408,32.665,136.64z"/> <path d="M75.079,84.175c-9.311,0-16.885,7.574-16.885,16.885s7.574,16.885,16.885,16.885s16.885-7.574,16.885-16.885 S84.39,84.175,75.079,84.175z M75.079,107.895c-3.768,0-6.834-3.066-6.834-6.834c0-3.768,3.066-6.834,6.834-6.834 s6.834,3.066,6.834,6.834C81.914,104.828,78.847,107.895,75.079,107.895z"/> <path d="M75.079,119.755c-9.311,0-16.885,7.574-16.885,16.885c0,9.311,7.574,16.885,16.885,16.885s16.885-7.574,16.885-16.885 C91.964,127.33,84.39,119.755,75.079,119.755z M75.079,143.475c-3.768,0-6.834-3.066-6.834-6.834c0-3.768,3.066-6.834,6.834-6.834 s6.834,3.066,6.834,6.834C81.914,140.408,78.847,143.475,75.079,143.475z"/> <path d="M297,98.749c0-1.631-0.529-3.218-1.508-4.523l-49.751-66.335c-1.423-1.898-3.658-3.015-6.03-3.015h-33.168 c-4.164,0-7.538,3.374-7.538,7.538v7.805c-7.863-0.157-15.794,0.776-23.602,2.868c-21.779,5.836-39.982,19.804-51.256,39.33 c-4.655,8.063-7.8,16.585-9.569,25.243V65.079c0-4.164-3.374-7.538-7.538-7.538H97.72c-2.202-18.373-17.873-32.665-36.83-32.665 h-7.202c-18.957,0-34.628,14.292-36.83,32.665H7.538C3.374,57.541,0,60.915,0,65.079v199.508c0,4.164,3.374,7.538,7.538,7.538 h281.924c4.164,0,7.538-3.374,7.538-7.538V98.749z M214.081,39.952h21.86l45.982,61.31v104.863h-67.843V39.952z M199.005,128.455 c-0.534,0.248-1.125,0.395-1.753,0.395c-2.33,0-4.225-1.896-4.225-4.226c0-2.33,1.895-4.225,4.225-4.225 c0.627,0,1.218,0.144,1.753,0.39V128.455z M199.005,105.41c-0.577-0.055-1.161-0.088-1.753-0.088 c-10.643,0-19.302,8.659-19.302,19.302c0,10.644,8.659,19.303,19.302,19.303c0.592,0,1.176-0.029,1.753-0.084v28.114 c-8.827,0.347-17.59-1.781-25.428-6.306c-10.954-6.324-18.789-16.535-22.063-28.752c-3.273-12.217-1.593-24.977,4.731-35.93 c6.324-10.954,16.535-18.788,28.752-22.062c4.079-1.093,8.219-1.634,12.333-1.634c0.559,0,1.117,0.022,1.675,0.042V105.41z M137.204,89.955c9.261-16.039,24.212-27.513,42.102-32.306c5.974-1.601,12.035-2.393,18.059-2.393c0.548,0,1.093,0.031,1.64,0.044 v6.944c-5.965-0.165-11.985,0.511-17.911,2.098c-16.107,4.316-29.568,14.645-37.905,29.086 c-8.338,14.441-10.552,31.264-6.237,47.371c4.316,16.107,14.645,29.568,29.086,37.905c9.62,5.554,20.294,8.391,31.112,8.391 c0.617,0,1.236-0.017,1.854-0.036v6.846c-12.359,0.338-24.952-2.612-36.422-9.234C129.473,165.556,118.088,123.066,137.204,89.955z M155.045,197.729c8.038,4.641,16.529,7.795,25.158,9.568h-65.624v-65.911C119.234,164.279,133.271,185.157,155.045,197.729z M53.688,39.952h7.202c10.626,0,19.519,7.563,21.579,17.589H67.252l3.019-5.683c1.301-2.451,0.37-5.494-2.081-6.796 c-2.449-1.3-5.494-0.371-6.796,2.081L55.87,57.541H32.109C34.169,47.515,43.062,39.952,53.688,39.952z M15.076,72.617h84.426 v134.68H15.076V72.617z M281.924,257.048H15.076v-34.675h266.848V257.048z"/> <path d="M73.873,174.129H40.706c-4.164,0-7.538,3.374-7.538,7.538s3.374,7.538,7.538,7.538h33.168c4.164,0,7.538-3.374,7.538-7.538 S78.037,174.129,73.873,174.129z"/> </g> </g>
</svg>