<!DOCTYPE svg PUBLIC "-//W3C//DTD SVG 1.1//EN" "http://www.w3.org/Graphics/SVG/1.1/DTD/svg11.dtd">

<!-- Uploaded to: SVG Repo, www.svgrepo.com, Transformed by: SVG Repo Mixer Tools -->
<svg width="64px" height="64px" viewBox="0 0 24 24" fill="none" xmlns="http://www.w3.org/2000/svg">

<g id="SVGRepo_bgCarrier" stroke-width="0"/>

<g id="SVGRepo_tracerCarrier" stroke-linecap="round" stroke-linejoin="round"/>

<g id="SVGRepo_iconCarrier"> <path d="M18 6L14.8284 9.17157M14.8284 9.17157C14.1046 8.44772 13.1046 8 12 8C10.8954 8 9.89543 8.44772 9.17157 9.17157M14.8284 9.17157C15.5523 9.89543 16 10.8954 16 12C16 13.1046 15.5523 14.1046 14.8284 14.8284M18 18L14.8284 14.8284M14.8284 14.8284C14.1046 15.5523 13.1046 16 12 16C10.8954 16 9.89543 15.5523 9.17157 14.8284M6 18L9.17157 14.8284M9.17157 14.8284C8.44772 14.1046 8 13.1046 8 12C8 10.8954 8.44772 9.89543 9.17157 9.17157M6 6L9.17157 9.17157M21 12C21 16.9706 16.9706 21 12 21C7.02944 21 3 16.9706 3 12C3 7.02944 7.02944 3 12 3C16.9706 3 21 7.02944 21 12Z" stroke="#1fab31" stroke-width="2" stroke-linecap="round" stroke-linejoin="round"/> </g>

</svg>