<svg width="348" height="666" viewBox="0 0 348 666" fill="none" xmlns="http://www.w3.org/2000/svg">
<g opacity="0.2">
<path d="M143.32 0C143.32 41.6194 122.98 41.6194 122.98 83.2462C122.98 124.873 143.32 124.873 143.32 166.492C143.32 208.112 122.98 208.119 122.98 249.746C122.98 291.373 143.32 291.366 143.32 332.992C143.32 374.619 122.98 374.619 122.98 416.239C122.98 457.858 143.32 457.866 143.32 499.492C143.32 541.119 122.98 541.119 122.98 582.746C122.98 624.373 143.32 624.373 143.32 666" stroke="#CDB89A" stroke-miterlimit="10"/>
<path d="M82.3322 0C82.3322 41.6194 61.9922 41.6194 61.9922 83.2462C61.9922 124.873 82.3322 124.873 82.3322 166.492C82.3322 208.112 61.9922 208.119 61.9922 249.746C61.9922 291.373 82.3322 291.366 82.3322 332.992C82.3322 374.619 61.9922 374.619 61.9922 416.239C61.9922 457.858 82.3322 457.866 82.3322 499.492C82.3322 541.119 61.9922 541.119 61.9922 582.746C61.9922 624.373 82.3322 624.373 82.3322 666" stroke="#CDB89A" stroke-miterlimit="10"/>
<path d="M204.309 0C204.309 41.6194 183.969 41.6194 183.969 83.2462C183.969 124.873 204.309 124.873 204.309 166.492C204.309 208.112 183.969 208.119 183.969 249.746C183.969 291.373 204.309 291.366 204.309 332.992C204.309 374.619 183.969 374.619 183.969 416.239C183.969 457.858 204.309 457.866 204.309 499.492C204.309 541.119 183.969 541.119 183.969 582.746C183.969 624.373 204.309 624.373 204.309 666" stroke="#CDB89A" stroke-miterlimit="10"/>
<path d="M295.793 0C295.793 41.6194 275.453 41.6194 275.453 83.2462C275.453 124.873 295.793 124.873 295.793 166.492C295.793 208.112 275.453 208.119 275.453 249.746C275.453 291.373 295.793 291.366 295.793 332.992C295.793 374.619 275.453 374.619 275.453 416.239C275.453 457.858 295.793 457.866 295.793 499.492C295.793 541.119 275.453 541.119 275.453 582.746C275.453 624.373 295.793 624.373 295.793 666" stroke="#CDB89A" stroke-miterlimit="10"/>
<path d="M51.8322 0C51.8322 41.6194 31.4922 41.6194 31.4922 83.2462C31.4922 124.873 51.8322 124.873 51.8322 166.492C51.8322 208.112 31.4922 208.119 31.4922 249.746C31.4922 291.373 51.8322 291.366 51.8322 332.992C51.8322 374.619 31.4922 374.619 31.4922 416.239C31.4922 457.858 51.8322 457.866 51.8322 499.492C51.8322 541.119 31.4922 541.119 31.4922 582.746C31.4922 624.373 51.8322 624.373 51.8322 666" stroke="#CDB89A" stroke-miterlimit="10"/>
<path d="M173.813 0C173.813 41.6194 153.473 41.6194 153.473 83.2462C153.473 124.873 173.813 124.873 173.813 166.492C173.813 208.112 153.473 208.119 153.473 249.746C153.473 291.373 173.813 291.366 173.813 332.992C173.813 374.619 153.473 374.619 153.473 416.239C153.473 457.858 173.813 457.866 173.813 499.492C173.813 541.119 153.473 541.119 153.473 582.746C153.473 624.373 173.813 624.373 173.813 666" stroke="#CDB89A" stroke-miterlimit="10"/>
<path d="M265.297 0C265.297 41.6194 244.957 41.6194 244.957 83.2462C244.957 124.873 265.297 124.873 265.297 166.492C265.297 208.112 244.957 208.119 244.957 249.746C244.957 291.373 265.297 291.366 265.297 332.992C265.297 374.619 244.957 374.619 244.957 416.239C244.957 457.858 265.297 457.866 265.297 499.492C265.297 541.119 244.957 541.119 244.957 582.746C244.957 624.373 265.297 624.373 265.297 666" stroke="#CDB89A" stroke-miterlimit="10"/>
<path d="M112.824 0C112.824 41.6194 92.4844 41.6194 92.4844 83.2462C92.4844 124.873 112.824 124.873 112.824 166.492C112.824 208.112 92.4844 208.119 92.4844 249.746C92.4844 291.373 112.824 291.366 112.824 332.992C112.824 374.619 92.4844 374.619 92.4844 416.239C92.4844 457.858 112.824 457.866 112.824 499.492C112.824 541.119 92.4844 541.119 92.4844 582.746C92.4844 624.373 112.824 624.373 112.824 666" stroke="#CDB89A" stroke-miterlimit="10"/>
<path d="M234.805 0C234.805 41.6194 214.465 41.6194 214.465 83.2462C214.465 124.873 234.805 124.873 234.805 166.492C234.805 208.112 214.465 208.119 214.465 249.746C214.465 291.373 234.805 291.366 234.805 332.992C234.805 374.619 214.465 374.619 214.465 416.239C214.465 457.858 234.805 457.866 234.805 499.492C234.805 541.119 214.465 541.119 214.465 582.746C214.465 624.373 234.805 624.373 234.805 666" stroke="#CDB89A" stroke-miterlimit="10"/>
<path d="M326.289 0C326.289 41.6194 305.949 41.6194 305.949 83.2462C305.949 124.873 326.289 124.873 326.289 166.492C326.289 208.112 305.949 208.119 305.949 249.746C305.949 291.373 326.289 291.366 326.289 332.992C326.289 374.619 305.949 374.619 305.949 416.239C305.949 457.858 326.289 457.866 326.289 499.492C326.289 541.119 305.949 541.119 305.949 582.746C305.949 624.373 326.289 624.373 326.289 666" stroke="#CDB89A" stroke-miterlimit="10"/>
<path d="M153.473 0C153.473 41.6194 133.133 41.6194 133.133 83.2462C133.133 124.873 153.473 124.873 153.473 166.492C153.473 208.112 133.133 208.119 133.133 249.746C133.133 291.373 153.473 291.366 153.473 332.992C153.473 374.619 133.133 374.619 133.133 416.239C133.133 457.858 153.473 457.866 153.473 499.492C153.473 541.119 133.133 541.119 133.133 582.746C133.133 624.373 153.473 624.373 153.473 666" stroke="#CDB89A" stroke-miterlimit="10"/>
<path d="M92.4845 0C92.4845 41.6194 72.1445 41.6194 72.1445 83.2462C72.1445 124.873 92.4845 124.873 92.4845 166.492C92.4845 208.112 72.1445 208.119 72.1445 249.746C72.1445 291.373 92.4845 291.366 92.4845 332.992C92.4845 374.619 72.1445 374.619 72.1445 416.239C72.1445 457.858 92.4845 457.866 92.4845 499.492C92.4845 541.119 72.1445 541.119 72.1445 582.746C72.1445 624.373 92.4845 624.373 92.4845 666" stroke="#CDB89A" stroke-miterlimit="10"/>
<path d="M214.465 0C214.465 41.6194 194.125 41.6194 194.125 83.2462C194.125 124.873 214.465 124.873 214.465 166.492C214.465 208.112 194.125 208.119 194.125 249.746C194.125 291.373 214.465 291.366 214.465 332.992C214.465 374.619 194.125 374.619 194.125 416.239C194.125 457.858 214.465 457.866 214.465 499.492C214.465 541.119 194.125 541.119 194.125 582.746C194.125 624.373 214.465 624.373 214.465 666" stroke="#CDB89A" stroke-miterlimit="10"/>
<path d="M305.949 0C305.949 41.6194 285.609 41.6194 285.609 83.2462C285.609 124.873 305.949 124.873 305.949 166.492C305.949 208.112 285.609 208.119 285.609 249.746C285.609 291.373 305.949 291.366 305.949 332.992C305.949 374.619 285.609 374.619 285.609 416.239C285.609 457.858 305.949 457.866 305.949 499.492C305.949 541.119 285.609 541.119 285.609 582.746C285.609 624.373 305.949 624.373 305.949 666" stroke="#CDB89A" stroke-miterlimit="10"/>
<path d="M61.9887 0C61.9887 41.6194 41.6487 41.6194 41.6487 83.2462C41.6487 124.873 61.9887 124.873 61.9887 166.492C61.9887 208.112 41.6487 208.119 41.6487 249.746C41.6487 291.373 61.9887 291.366 61.9887 332.992C61.9887 374.619 41.6487 374.619 41.6487 416.239C41.6487 457.858 61.9887 457.866 61.9887 499.492C61.9887 541.119 41.6487 541.119 41.6487 582.746C41.6487 624.373 61.9887 624.373 61.9887 666" stroke="#CDB89A" stroke-miterlimit="10"/>
<path d="M183.969 0C183.969 41.6194 163.629 41.6194 163.629 83.2462C163.629 124.873 183.969 124.873 183.969 166.492C183.969 208.112 163.629 208.119 163.629 249.746C163.629 291.373 183.969 291.366 183.969 332.992C183.969 374.619 163.629 374.619 163.629 416.239C163.629 457.858 183.969 457.866 183.969 499.492C183.969 541.119 163.629 541.119 163.629 582.746C163.629 624.373 183.969 624.373 183.969 666" stroke="#CDB89A" stroke-miterlimit="10"/>
<path d="M275.453 0C275.453 41.6194 255.113 41.6194 255.113 83.2462C255.113 124.873 275.453 124.873 275.453 166.492C275.453 208.112 255.113 208.119 255.113 249.746C255.113 291.373 275.453 291.366 275.453 332.992C275.453 374.619 255.113 374.619 255.113 416.239C255.113 457.858 275.453 457.866 275.453 499.492C275.453 541.119 255.113 541.119 255.113 582.746C255.113 624.373 275.453 624.373 275.453 666" stroke="#CDB89A" stroke-miterlimit="10"/>
<path d="M122.981 0C122.981 41.6194 102.641 41.6194 102.641 83.2462C102.641 124.873 122.981 124.873 122.981 166.492C122.981 208.112 102.641 208.119 102.641 249.746C102.641 291.373 122.981 291.366 122.981 332.992C122.981 374.619 102.641 374.619 102.641 416.239C102.641 457.858 122.981 457.866 122.981 499.492C122.981 541.119 102.641 541.119 102.641 582.746C102.641 624.373 122.981 624.373 122.981 666" stroke="#CDB89A" stroke-miterlimit="10"/>
<path d="M244.961 0C244.961 41.6194 224.621 41.6194 224.621 83.2462C224.621 124.873 244.961 124.873 244.961 166.492C244.961 208.112 224.621 208.119 224.621 249.746C224.621 291.373 244.961 291.366 244.961 332.992C244.961 374.619 224.621 374.619 224.621 416.239C224.621 457.858 244.961 457.866 244.961 499.492C244.961 541.119 224.621 541.119 224.621 582.746C224.621 624.373 244.961 624.373 244.961 666" stroke="#CDB89A" stroke-miterlimit="10"/>
<path d="M336.445 0C336.445 41.6194 316.105 41.6194 316.105 83.2462C316.105 124.873 336.445 124.873 336.445 166.492C336.445 208.112 316.105 208.119 316.105 249.746C316.105 291.373 336.445 291.366 336.445 332.992C336.445 374.619 316.105 374.619 316.105 416.239C316.105 457.858 336.445 457.866 336.445 499.492C336.445 541.119 316.105 541.119 316.105 582.746C316.105 624.373 336.445 624.373 336.445 666" stroke="#CDB89A" stroke-miterlimit="10"/>
<path d="M31.4962 0C31.4962 41.6194 11.1562 41.6194 11.1562 83.2462C11.1562 124.873 31.4962 124.873 31.4962 166.492C31.4962 208.112 11.1562 208.119 11.1562 249.746C11.1562 291.373 31.4962 291.366 31.4962 332.992C31.4962 374.619 11.1562 374.619 11.1562 416.239C11.1562 457.858 31.4962 457.866 31.4962 499.492C31.4962 541.119 11.1562 541.119 11.1562 582.746C11.1562 624.373 31.4962 624.373 31.4962 666" stroke="#CDB89A" stroke-miterlimit="10"/>
<path d="M153.473 0C153.473 41.6194 133.133 41.6194 133.133 83.2462C133.133 124.873 153.473 124.873 153.473 166.492C153.473 208.112 133.133 208.119 133.133 249.746C133.133 291.373 153.473 291.366 153.473 332.992C153.473 374.619 133.133 374.619 133.133 416.239C133.133 457.858 153.473 457.866 153.473 499.492C153.473 541.119 133.133 541.119 133.133 582.746C133.133 624.373 153.473 624.373 153.473 666" stroke="#CDB89A" stroke-miterlimit="10"/>
<path d="M92.4845 0C92.4845 41.6194 72.1445 41.6194 72.1445 83.2462C72.1445 124.873 92.4845 124.873 92.4845 166.492C92.4845 208.112 72.1445 208.119 72.1445 249.746C72.1445 291.373 92.4845 291.366 92.4845 332.992C92.4845 374.619 72.1445 374.619 72.1445 416.239C72.1445 457.858 92.4845 457.866 92.4845 499.492C92.4845 541.119 72.1445 541.119 72.1445 582.746C72.1445 624.373 92.4845 624.373 92.4845 666" stroke="#CDB89A" stroke-miterlimit="10"/>
<path d="M214.465 0C214.465 41.6194 194.125 41.6194 194.125 83.2462C194.125 124.873 214.465 124.873 214.465 166.492C214.465 208.112 194.125 208.119 194.125 249.746C194.125 291.373 214.465 291.366 214.465 332.992C214.465 374.619 194.125 374.619 194.125 416.239C194.125 457.858 214.465 457.866 214.465 499.492C214.465 541.119 194.125 541.119 194.125 582.746C194.125 624.373 214.465 624.373 214.465 666" stroke="#CDB89A" stroke-miterlimit="10"/>
<path d="M305.949 0C305.949 41.6194 285.609 41.6194 285.609 83.2462C285.609 124.873 305.949 124.873 305.949 166.492C305.949 208.112 285.609 208.119 285.609 249.746C285.609 291.373 305.949 291.366 305.949 332.992C305.949 374.619 285.609 374.619 285.609 416.239C285.609 457.858 305.949 457.866 305.949 499.492C305.949 541.119 285.609 541.119 285.609 582.746C285.609 624.373 305.949 624.373 305.949 666" stroke="#CDB89A" stroke-miterlimit="10"/>
<path d="M61.9887 0C61.9887 41.6194 41.6487 41.6194 41.6487 83.2462C41.6487 124.873 61.9887 124.873 61.9887 166.492C61.9887 208.112 41.6487 208.119 41.6487 249.746C41.6487 291.373 61.9887 291.366 61.9887 332.992C61.9887 374.619 41.6487 374.619 41.6487 416.239C41.6487 457.858 61.9887 457.866 61.9887 499.492C61.9887 541.119 41.6487 541.119 41.6487 582.746C41.6487 624.373 61.9887 624.373 61.9887 666" stroke="#CDB89A" stroke-miterlimit="10"/>
<path d="M183.969 0C183.969 41.6194 163.629 41.6194 163.629 83.2462C163.629 124.873 183.969 124.873 183.969 166.492C183.969 208.112 163.629 208.119 163.629 249.746C163.629 291.373 183.969 291.366 183.969 332.992C183.969 374.619 163.629 374.619 163.629 416.239C163.629 457.858 183.969 457.866 183.969 499.492C183.969 541.119 163.629 541.119 163.629 582.746C163.629 624.373 183.969 624.373 183.969 666" stroke="#CDB89A" stroke-miterlimit="10"/>
<path d="M275.453 0C275.453 41.6194 255.113 41.6194 255.113 83.2462C255.113 124.873 275.453 124.873 275.453 166.492C275.453 208.112 255.113 208.119 255.113 249.746C255.113 291.373 275.453 291.366 275.453 332.992C275.453 374.619 255.113 374.619 255.113 416.239C255.113 457.858 275.453 457.866 275.453 499.492C275.453 541.119 255.113 541.119 255.113 582.746C255.113 624.373 275.453 624.373 275.453 666" stroke="#CDB89A" stroke-miterlimit="10"/>
<path d="M122.981 0C122.981 41.6194 102.641 41.6194 102.641 83.2462C102.641 124.873 122.981 124.873 122.981 166.492C122.981 208.112 102.641 208.119 102.641 249.746C102.641 291.373 122.981 291.366 122.981 332.992C122.981 374.619 102.641 374.619 102.641 416.239C102.641 457.858 122.981 457.866 122.981 499.492C122.981 541.119 102.641 541.119 102.641 582.746C102.641 624.373 122.981 624.373 122.981 666" stroke="#CDB89A" stroke-miterlimit="10"/>
<path d="M244.961 0C244.961 41.6194 224.621 41.6194 224.621 83.2462C224.621 124.873 244.961 124.873 244.961 166.492C244.961 208.112 224.621 208.119 224.621 249.746C224.621 291.373 244.961 291.366 244.961 332.992C244.961 374.619 224.621 374.619 224.621 416.239C224.621 457.858 244.961 457.866 244.961 499.492C244.961 541.119 224.621 541.119 224.621 582.746C224.621 624.373 244.961 624.373 244.961 666" stroke="#CDB89A" stroke-miterlimit="10"/>
<path d="M336.445 0C336.445 41.6194 316.105 41.6194 316.105 83.2462C316.105 124.873 336.445 124.873 336.445 166.492C336.445 208.112 316.105 208.119 316.105 249.746C316.105 291.373 336.445 291.366 336.445 332.992C336.445 374.619 316.105 374.619 316.105 416.239C316.105 457.858 336.445 457.866 336.445 499.492C336.445 541.119 316.105 541.119 316.105 582.746C316.105 624.373 336.445 624.373 336.445 666" stroke="#CDB89A" stroke-miterlimit="10"/>
<path d="M41.6525 0C41.6525 41.6194 21.3125 41.6194 21.3125 83.2462C21.3125 124.873 41.6525 124.873 41.6525 166.492C41.6525 208.112 21.3125 208.119 21.3125 249.746C21.3125 291.373 41.6525 291.366 41.6525 332.992C41.6525 374.619 21.3125 374.619 21.3125 416.239C21.3125 457.858 41.6525 457.866 41.6525 499.492C41.6525 541.119 21.3125 541.119 21.3125 582.746C21.3125 624.373 41.6525 624.373 41.6525 666" stroke="#CDB89A" stroke-miterlimit="10"/>
<path d="M163.629 0C163.629 41.6194 143.289 41.6194 143.289 83.2462C143.289 124.873 163.629 124.873 163.629 166.492C163.629 208.112 143.289 208.119 143.289 249.746C143.289 291.373 163.629 291.366 163.629 332.992C163.629 374.619 143.289 374.619 143.289 416.239C143.289 457.858 163.629 457.866 163.629 499.492C163.629 541.119 143.289 541.119 143.289 582.746C143.289 624.373 163.629 624.373 163.629 666" stroke="#CDB89A" stroke-miterlimit="10"/>
<path d="M102.637 0C102.637 41.6194 82.2969 41.6194 82.2969 83.2462C82.2969 124.873 102.637 124.873 102.637 166.492C102.637 208.112 82.2969 208.119 82.2969 249.746C82.2969 291.373 102.637 291.366 102.637 332.992C102.637 374.619 82.2969 374.619 82.2969 416.239C82.2969 457.858 102.637 457.866 102.637 499.492C102.637 541.119 82.2969 541.119 82.2969 582.746C82.2969 624.373 102.637 624.373 102.637 666" stroke="#CDB89A" stroke-miterlimit="10"/>
<path d="M224.617 0C224.617 41.6194 204.277 41.6194 204.277 83.2462C204.277 124.873 224.617 124.873 224.617 166.492C224.617 208.112 204.277 208.119 204.277 249.746C204.277 291.373 224.617 291.366 224.617 332.992C224.617 374.619 204.277 374.619 204.277 416.239C204.277 457.858 224.617 457.866 224.617 499.492C224.617 541.119 204.277 541.119 204.277 582.746C204.277 624.373 224.617 624.373 224.617 666" stroke="#CDB89A" stroke-miterlimit="10"/>
<path d="M316.102 0C316.102 41.6194 295.762 41.6194 295.762 83.2462C295.762 124.873 316.102 124.873 316.102 166.492C316.102 208.112 295.762 208.119 295.762 249.746C295.762 291.373 316.102 291.366 316.102 332.992C316.102 374.619 295.762 374.619 295.762 416.239C295.762 457.858 316.102 457.866 316.102 499.492C316.102 541.119 295.762 541.119 295.762 582.746C295.762 624.373 316.102 624.373 316.102 666" stroke="#CDB89A" stroke-miterlimit="10"/>
<path d="M72.1447 0C72.1447 41.6194 51.8047 41.6194 51.8047 83.2462C51.8047 124.873 72.1447 124.873 72.1447 166.492C72.1447 208.112 51.8047 208.119 51.8047 249.746C51.8047 291.373 72.1447 291.366 72.1447 332.992C72.1447 374.619 51.8047 374.619 51.8047 416.239C51.8047 457.858 72.1447 457.866 72.1447 499.492C72.1447 541.119 51.8047 541.119 51.8047 582.746C51.8047 624.373 72.1447 624.373 72.1447 666" stroke="#CDB89A" stroke-miterlimit="10"/>
<path d="M194.125 0C194.125 41.6194 173.785 41.6194 173.785 83.2462C173.785 124.873 194.125 124.873 194.125 166.492C194.125 208.112 173.785 208.119 173.785 249.746C173.785 291.373 194.125 291.366 194.125 332.992C194.125 374.619 173.785 374.619 173.785 416.239C173.785 457.858 194.125 457.866 194.125 499.492C194.125 541.119 173.785 541.119 173.785 582.746C173.785 624.373 194.125 624.373 194.125 666" stroke="#CDB89A" stroke-miterlimit="10"/>
<path d="M285.61 0C285.61 41.6194 265.27 41.6194 265.27 83.2462C265.27 124.873 285.61 124.873 285.61 166.492C285.61 208.112 265.27 208.119 265.27 249.746C265.27 291.373 285.61 291.366 285.61 332.992C285.61 374.619 265.27 374.619 265.27 416.239C265.27 457.858 285.61 457.866 285.61 499.492C285.61 541.119 265.27 541.119 265.27 582.746C265.27 624.373 285.61 624.373 285.61 666" stroke="#CDB89A" stroke-miterlimit="10"/>
<path d="M133.137 0C133.137 41.6194 112.797 41.6194 112.797 83.2462C112.797 124.873 133.137 124.873 133.137 166.492C133.137 208.112 112.797 208.119 112.797 249.746C112.797 291.373 133.137 291.366 133.137 332.992C133.137 374.619 112.797 374.619 112.797 416.239C112.797 457.858 133.137 457.866 133.137 499.492C133.137 541.119 112.797 541.119 112.797 582.746C112.797 624.373 133.137 624.373 133.137 666" stroke="#CDB89A" stroke-miterlimit="10"/>
<path d="M255.117 0C255.117 41.6194 234.777 41.6194 234.777 83.2462C234.777 124.873 255.117 124.873 255.117 166.492C255.117 208.112 234.777 208.119 234.777 249.746C234.777 291.373 255.117 291.366 255.117 332.992C255.117 374.619 234.777 374.619 234.777 416.239C234.777 457.858 255.117 457.866 255.117 499.492C255.117 541.119 234.777 541.119 234.777 582.746C234.777 624.373 255.117 624.373 255.117 666" stroke="#CDB89A" stroke-miterlimit="10"/>
<path d="M346.598 0C346.598 41.6194 326.258 41.6194 326.258 83.2462C326.258 124.873 346.598 124.873 346.598 166.492C346.598 208.112 326.258 208.119 326.258 249.746C326.258 291.373 346.598 291.366 346.598 332.992C346.598 374.619 326.258 374.619 326.258 416.239C326.258 457.858 346.598 457.866 346.598 499.492C346.598 541.119 326.258 541.119 326.258 582.746C326.258 624.373 346.598 624.373 346.598 666" stroke="#CDB89A" stroke-miterlimit="10"/>
<path d="M21.34 0C21.34 41.6194 1 41.6194 1 83.2462C1 124.873 21.34 124.873 21.34 166.492C21.34 208.112 1 208.119 1 249.746C1 291.373 21.34 291.366 21.34 332.992C21.34 374.619 1 374.619 1 416.239C1 457.858 21.34 457.866 21.34 499.492C21.34 541.119 1 541.119 1 582.746C1 624.373 21.34 624.373 21.34 666" stroke="#CDB89A" stroke-miterlimit="10"/>
<path d="M31.4962 0C31.4962 41.6194 11.1562 41.6194 11.1562 83.2462C11.1562 124.873 31.4962 124.873 31.4962 166.492C31.4962 208.112 11.1562 208.119 11.1562 249.746C11.1562 291.373 31.4962 291.366 31.4962 332.992C31.4962 374.619 11.1562 374.619 11.1562 416.239C11.1562 457.858 31.4962 457.866 31.4962 499.492C31.4962 541.119 11.1562 541.119 11.1562 582.746C11.1562 624.373 31.4962 624.373 31.4962 666" stroke="#CDB89A" stroke-miterlimit="10"/>
</g>
</svg>
